<svg width="82" height="72" viewBox="0 0 82 72" fill="none" xmlns="http://www.w3.org/2000/svg">
<path d="M53.1493 21.9982C53.1493 34.1472 42.2674 43.9964 28.855 43.9964C25.4765 43.9964 22.2626 43.3715 19.3397 42.2465L9.01461 47.6461C7.83785 48.2586 6.39538 48.0461 5.44638 47.1211C4.49738 46.1962 4.28228 44.7588 4.91494 43.5964L9.41951 35.1971C6.37007 31.5224 4.56065 26.9478 4.56065 21.9982C4.56065 9.84919 15.4425 0 28.855 0C42.2674 0 53.1493 9.84919 53.1493 21.9982ZM53.1493 67.9944C41.2425 67.9944 31.335 60.2326 29.2599 49.9959C44.4438 49.8084 57.6412 39.1343 59.0963 24.6605C69.6365 27.0603 77.4436 35.6971 77.4436 45.9962C77.4436 50.9458 75.6341 55.5205 72.5847 59.1952L77.0893 67.5945C77.7093 68.7569 77.4942 70.1818 76.5578 71.1192C75.6215 72.0566 74.1664 72.2691 72.9896 71.6441L62.6645 66.2446C59.7416 67.3695 56.5277 67.9944 53.1493 67.9944Z" fill="#7A7A7A"/>
</svg>
